<mxfile host="app.diagrams.net" modified="2024-07-22T23:26:54.547Z" agent="Mozilla/5.0 (Macintosh; Intel Mac OS X 10.15; rv:128.0) Gecko/20100101 Firefox/128.0" version="24.7.1" etag="jtK9sxizDXdYPMQEAbib" type="github">
  <diagram name="Page-1" id="PvZmiF-Ko46wsm3WqE9D">
    <mxGraphModel>
      <root>
        <mxCell id="0" />
        <mxCell id="1" parent="0" />
      </root>
    </mxGraphModel>
  </diagram>
</mxfile>
